<svg xmlns="http://www.w3.org/2000/svg" xmlns:xlink="http://www.w3.org/1999/xlink" id="Layer_1" x="0px" y="0px" viewBox="0 0 362.6 51.5" style="enable-background:new 0 0 362.6 51.5;" xml:space="preserve"><style type="text/css">	.st0{fill:#FFFFFF;}</style><g>	<rect x="163.2" y="0" class="st0" width="1.1" height="47.9"></rect>	<polygon class="st0" points="182.9,18.2 182.9,0.5 194.2,0.5 194.2,4.3 186.8,4.3 186.8,8 193.4,8 193.4,11.6 186.8,11.6   186.8,18.2  "></polygon>	<path class="st0" d="M204,10.5c-0.1-1.2-1.1-2.2-2.3-2.1c-0.1,0-0.1,0-0.2,0c-1.2-0.1-2.3,0.9-2.5,2.1H204z M207.5,14.6  c-0.8,2.5-3.1,4.1-5.7,3.9c-3.5,0.1-6.4-2.7-6.4-6.1c0-0.1,0-0.3,0-0.4c-0.2-3.4,2.5-6.3,5.9-6.5c0.1,0,0.1,0,0.2,0  c3.8,0,6.2,2.4,6.2,6.3c0,0.4,0,0.8-0.1,1.2H199c0.1,1.4,1.3,2.5,2.8,2.4c1.1,0.1,2.1-0.6,2.5-1.6L207.5,14.6z"></path>	<path class="st0" d="M217.8,9.5c-0.4-0.1-0.8-0.1-1.2-0.1c-1.5,0-2.9,0.9-2.9,3.4v5.4h-3.8V5.8h3.7v1.7c0.6-1.2,1.9-1.9,3.2-1.8  c0.3,0,0.7,0,1,0.1V9.5z"></path>	<path class="st0" d="M219.6,18.2V5.8h3.6v1.4c0.8-1.1,2.2-1.8,3.6-1.8c1.5-0.1,2.9,0.6,3.6,1.9c0.8-1.3,2.3-2,3.8-1.9  c2.3,0,4.6,1.4,4.6,4.7v8h-3.7V11c0.1-1-0.6-2-1.6-2.1c-0.1,0-0.2,0-0.4,0c-1.1,0-2,0.8-2.1,1.9c0,0.1,0,0.1,0,0.2v7.1h-3.7V11  c0.1-1-0.6-2-1.7-2.1c-0.1,0-0.2,0-0.3,0c-1.1,0-2,0.9-2,2V11v7.1h-3.7V18.2z"></path>	<path class="st0" d="M244.8,4.3h-3l2.3-3.8h4.2L244.8,4.3z M241.7,5.8h3.8v12.4h-3.8V5.8z"></path>	<path class="st0" d="M252.3,18.2h-3.8V5.8h3.6v1.4c0.8-1.1,2.1-1.8,3.4-1.7c3.1,0,4.5,2.2,4.5,4.9v7.7h-3.8V11c0.1-1-0.6-2-1.7-2.1  c-0.1,0-0.2,0-0.3,0c-1.1,0-2,0.9-2,2c0,0.1,0,0.1,0,0.2L252.3,18.2z"></path>	<polygon class="st0" points="279.5,0.5 283.7,0.5 277.3,18.2 273.2,18.2 266.8,0.5 271.1,0.5 275.3,12.9  "></polygon>	<path class="st0" d="M290.3,4.3h-3l2.3-3.8h4.2L290.3,4.3z M290.9,13.3v-0.5l-2.3,0.4c-0.8,0.1-1.4,0.5-1.4,1.4  c0,0.7,0.6,1.3,1.3,1.3c0.1,0,0.1,0,0.2,0C289.8,15.8,290.9,15.3,290.9,13.3 M287.1,11.1l2.9-0.5c0.7-0.1,0.9-0.4,0.9-0.8  c0-0.7-0.6-1.4-1.8-1.4c-1.1-0.1-2,0.7-2.1,1.8l-3.3-0.7c0.1-1.8,1.8-4.1,5.4-4.1c4,0,5.5,2.2,5.5,4.8v6c0,0.6,0.1,1.3,0.1,1.9  h-3.4c-0.1-0.5-0.1-0.9-0.1-1.4c-0.7,1.2-2,1.9-3.4,1.8c-2.7,0-4.3-1.8-4.3-3.8C283.5,12.6,285.1,11.3,287.1,11.1"></path>	<polygon class="st0" points="296.9,18.2 296.9,14.8 302.3,9 297,9 297,5.8 307.1,5.8 307.1,8.9 301.4,14.9 307.2,14.9 307.2,18.2    "></polygon>	<path class="st0" d="M315.3,15c1.5,0,2.8-1.2,2.8-2.8c0-0.1,0-0.2,0-0.3c0.2-1.5-1-2.9-2.5-3.1c-1.5-0.2-2.9,1-3.1,2.5  c0,0.2,0,0.4,0,0.6c-0.2,1.5,1,2.9,2.5,3.1C315.1,15,315.2,15,315.3,15 M318,22.9v-5.7c-0.8,0.9-2,1.4-3.2,1.3  c-3.5,0-6.1-2.7-6.1-6.5s2.4-6.4,6-6.4c2.2,0,3.2,1,3.5,1.5V5.8h3.6v17.1C321.8,22.9,318,22.9,318,22.9z"></path>	<path class="st0" d="M332.6,16.9c-0.8,1-2,1.6-3.3,1.5c-2.5,0.1-4.6-1.8-4.7-4.3c0-0.2,0-0.3,0-0.5V5.8h3.8v7  c-0.1,1.1,0.6,2,1.7,2.1c0.1,0,0.2,0,0.3,0c1.1,0,2-0.8,2.1-1.9c0-0.1,0-0.1,0-0.2v-7h3.8v10.1c0,0.7,0,1.5,0.1,2.2h-3.6  C332.7,17.7,332.6,17.3,332.6,16.9"></path>	<path class="st0" d="M347.1,10.5c-0.1-1.2-1.1-2.2-2.3-2.1c-0.1,0-0.1,0-0.2,0c-1.2-0.1-2.3,0.9-2.5,2.1H347.1z M350.5,14.6  c-0.8,2.5-3.1,4.1-5.7,3.9c-3.5,0.1-6.4-2.7-6.4-6.1c0-0.2,0-0.3,0-0.5c-0.2-3.4,2.5-6.3,5.9-6.5c0.1,0,0.1,0,0.2,0  c3.8,0,6.2,2.4,6.2,6.3c0,0.4,0,0.8-0.1,1.2H342c0.1,1.4,1.4,2.5,2.8,2.4c1.1,0.1,2.1-0.6,2.5-1.6L350.5,14.6z"></path>	<polygon class="st0" points="352.3,18.2 352.3,14.8 357.7,9 352.4,9 352.4,5.8 362.5,5.8 362.5,8.9 356.9,14.9 362.6,14.9   362.6,18.2  "></polygon>	<path class="st0" d="M187.9,39.6h4.3l-2.1-6.1L187.9,39.6z M193.4,43.2h-6.8l-1.3,3.6h-4.1l6.6-17.6h4.6l6.6,17.6h-4.3L193.4,43.2z  "></path>	<path class="st0" d="M208.5,38.2c-0.4-0.1-0.8-0.1-1.2-0.1c-1.5,0-2.9,0.9-2.9,3.4v5.4h-3.8V34.4h3.6v1.7c0.9-1.4,2.6-2.1,4.2-1.7  L208.5,38.2z"></path>	<path class="st0" d="M216.3,43.7c1.5,0,2.8-1.2,2.8-2.7c0-0.1,0-0.2,0-0.3c0.2-1.5-1-2.9-2.5-3.1c-1.5-0.2-2.9,1-3.1,2.5  c0,0.2,0,0.4,0,0.6c-0.2,1.5,1,2.9,2.5,3.1C216.1,43.7,216.2,43.7,216.3,43.7 M219.1,51.5v-5.7c-0.8,0.9-2,1.4-3.2,1.3  c-3.5,0-6.1-2.7-6.1-6.5s2.4-6.4,6-6.4c2.2,0,3.2,1,3.5,1.5v-1.2h3.6v17.1L219.1,51.5L219.1,51.5z"></path>	<path class="st0" d="M233.7,45.5c-0.8,1-2,1.6-3.3,1.5c-2.5,0.1-4.6-1.8-4.7-4.3c0-0.2,0-0.3,0-0.5v-7.8h3.8v7  c-0.1,1,0.6,2,1.7,2.1c0.1,0,0.2,0,0.3,0c1.1,0,2-0.8,2.1-1.9c0-0.1,0-0.1,0-0.2v-7h3.8v10.1c0,0.7,0,1.5,0.1,2.2h-3.6  C233.7,46.4,233.7,46,233.7,45.5"></path>	<path class="st0" d="M240.3,34.4h3.8v12.4h-3.8V34.4z M242.1,28.4c1.2,0,2.2,1,2.3,2.2c0,1.2-1,2.2-2.2,2.3c-1.2,0-2.2-1-2.3-2.2  l0,0C240,29.4,240.9,28.5,242.1,28.4"></path>	<path class="st0" d="M251.6,34.4h2.4v3.3h-2.4v4.6c0,1,0.5,1.3,1.4,1.3c0.3,0,0.7,0,1-0.1v3.1c-0.6,0.3-1.3,0.4-2,0.3  c-2.6,0-4.1-1.5-4.1-4v-5.3h-2.2v-3.3h0.6c1,0.1,1.9-0.7,1.9-1.7c0-0.1,0-0.2,0-0.3v-1.6h3.4L251.6,34.4z"></path>	<path class="st0" d="M264.2,39.1c-0.1-1.2-1.1-2.2-2.3-2.1c-0.1,0-0.1,0-0.2,0c-1.2-0.1-2.3,0.9-2.5,2.1H264.2z M267.6,43.2  c-0.8,2.5-3.1,4.1-5.7,3.9c-3.6,0-6.5-3-6.5-6.6c0-3.4,2.8-6.3,6.2-6.5c3.8,0,6.2,2.4,6.2,6.3c0,0.4,0,0.8,0,1.1h-8.6  c0.2,1.4,1.4,2.5,2.8,2.4c1.1,0.1,2.1-0.6,2.5-1.6L267.6,43.2z"></path>	<path class="st0" d="M273,40.6c-0.1,1.6,1.1,2.9,2.6,3c0.1,0,0.2,0,0.2,0c1.2,0.1,2.2-0.7,2.6-1.8l3.3,1c-0.7,2.6-3.2,4.4-5.9,4.3  c-3.6,0.1-6.5-2.7-6.6-6.3c0-0.1,0-0.2,0-0.3c-0.1-3.5,2.7-6.4,6.3-6.5c0.1,0,0.2,0,0.3,0c2.8-0.2,5.2,1.6,5.9,4.3l-3.4,1  c-0.3-1.1-1.3-1.9-2.5-1.8c-1.5,0-2.8,1.2-2.8,2.7C273,40.4,273,40.5,273,40.6"></path>	<path class="st0" d="M288.8,34.4h2.4v3.3h-2.4v4.6c0,1,0.5,1.3,1.4,1.3c0.3,0,0.7,0,1-0.1v3.1c-0.6,0.3-1.3,0.4-2,0.3  c-2.6,0-4.1-1.5-4.1-4v-5.3h-2.2v-3.3h0.6c1,0.1,1.9-0.7,1.9-1.7c0-0.1,0-0.2,0-0.3v-1.6h3.4L288.8,34.4L288.8,34.4z"></path>	<path class="st0" d="M302,40.6c0.1-1.5-1-2.9-2.5-3s-2.9,1-3,2.5c0,0.2,0,0.3,0,0.5c-0.2,1.5,0.9,2.9,2.4,3.1s2.9-0.9,3.1-2.4  C302,41,302,40.8,302,40.6 M305.8,40.6c0,3.6-2.9,6.6-6.5,6.6s-6.6-2.9-6.6-6.5s2.9-6.6,6.5-6.6l0,0c3.5-0.1,6.5,2.7,6.6,6.2  C305.8,40.4,305.8,40.5,305.8,40.6"></path>	<path class="st0" d="M310.2,42.7c0,1,0.9,1.7,1.8,1.7h0.1c1,0,1.4-0.5,1.4-1.1s-0.3-0.8-1.2-1L311,42c-2.6-0.6-3.7-2.1-3.7-3.8  c0-2.3,2-4.1,4.8-4.1c3.6,0,4.8,2.2,4.9,3.7l-3.1,0.6c-0.1-0.9-0.8-1.6-1.7-1.5l0,0c-0.6-0.1-1.2,0.4-1.3,1c0,0.5,0.4,0.8,1,0.9  l1.6,0.3c2.6,0.5,3.8,2.1,3.8,3.9c0,2.1-1.6,4.2-4.9,4.2c-3.9,0-5.1-2.5-5.2-3.9L310.2,42.7z"></path>	<path class="st0" d="M24.8,31.2c0,4.1-2.3,8.2-7.4,8.2c-3.7,0-7.4-2.5-7.4-8.2c0-6,4-8.1,7.4-8.1C22.8,23.1,24.8,27.5,24.8,31.2   M19.6,13.8c-3.3,0-7.5,1.2-9.5,3.7V1.1H0v46.7h10v-3.5c1.7,2.6,5.2,4.2,9.2,4.2c4.3,0.1,8.5-1.7,11.4-4.9c3-3.5,4.6-8,4.4-12.5  C35.1,20.8,28.9,13.8,19.6,13.8"></path>	<path class="st0" d="M69.8,10.2c-3,2.8-15.3,14.6-17.2,37.6H41.5c1.8-24.1,15.7-37.2,15.7-37.2H35.7V1.1h34.2L69.8,10.2L69.8,10.2z  "></path>	<path class="st0" d="M72.9,19.8c-0.3-1.3-0.4-2.6-0.4-3.9c0-8.3,5.9-15.8,16.5-15.8c10.1,0,16.3,7,16.3,15.3c0,6-3,11-8.7,14.5  l-8.3,5.2c-1.3,0.7-2.3,1.8-3,3.2h20.3v9.5H72.2c0-8.5,2.3-15.6,10.4-20.5l7.2-4.5c3.4-2.2,4.8-4.1,4.8-7.2s-2-5.5-5.9-5.5  c-4.1,0-6.2,3-6.2,6.9c0,1,0.1,1.9,0.4,2.9L72.9,19.8z"></path>	<path class="st0" d="M122.1,34.6c1.2,2.6,3.2,4.3,6.4,4.3c3.2,0,5.2-1.7,6.4-4.3s1.7-6.4,1.7-10.1s-0.4-7.4-1.7-10.1  s-3.1-4.3-6.4-4.3s-5.2,1.7-6.4,4.3s-1.6,6.4-1.6,10.1S120.9,31.9,122.1,34.6 M113.6,8.1c2.9-4.7,7.8-8,14.9-8c7.1,0,12.1,3.3,15,8  c3,4.9,3.9,10.7,3.9,16.5s-0.8,11.6-3.9,16.5c-5.5,8.3-16.7,10.4-25,4.9c-1.9-1.3-3.6-3-4.9-4.9c-3.1-4.9-3.9-10.7-3.9-16.4  S110.6,13,113.6,8.1"></path></g></svg>